<svg width="300" height="329" viewBox="0 0 300 329" fill="none" xmlns="http://www.w3.org/2000/svg">
<path d="M198.427 145.464C185.431 153.238 173.786 150.681 166.874 138.869C161.625 129.9 163.281 120.084 171.394 112.062C178.625 104.912 178.17 99.6362 169.332 93.8838C156.892 85.7881 144.286 77.9473 131.708 70.0672C114.556 59.3214 97.3597 48.6464 80.196 37.9191C79.2533 37.33 78.007 37.0191 77.6614 35.5846C77.5733 34.1929 78.8416 33.7913 79.7814 33.2804C98.4091 23.1546 117.117 13.1747 135.672 2.91714C143.472 -1.39493 150.295 -0.910782 157.679 4.26529C169.986 12.8914 182.7 20.951 195.428 28.955C200.203 31.9581 202.496 35.8457 202.314 41.336C202.113 47.4325 202.898 53.6125 201.219 59.9239C196.115 58.7498 192.695 55.4868 188.878 53.077C178.287 46.3894 167.601 39.7983 157.457 32.4701C149.051 26.3972 141.023 25.6688 132.341 31.2095C129.804 32.8287 126.575 33.3838 124.126 36.7944C131.935 41.8994 139.536 47.013 147.28 51.9005C162.764 61.6739 178.251 71.4477 193.903 80.9486C198.623 83.8139 200.571 87.5801 200.391 92.8566C200.286 95.9387 200.461 99.0314 200.323 102.111C200.053 108.152 200.915 113.525 204.453 118.979C210.157 127.771 207.576 137.284 198.427 145.464ZM176.747 133.321C177.896 134.58 178.861 136.108 180.23 137.047C184.72 140.13 190.608 138.604 193.674 133.76C196.677 129.016 195.174 122.979 190.185 119.742C185.64 116.793 179.8 117.956 177.122 122.434C175.213 125.625 175.706 129.066 176.747 133.321Z" fill="#177BFE"/>
<path d="M184.87 265.109C199.348 273.539 213.468 281.747 227.363 289.824C227.19 292.936 225.073 293.5 223.503 294.378C204.824 304.833 186.034 315.093 167.44 325.697C160.935 329.406 155.163 328.871 149.045 325.053C136.118 316.984 123.129 309.01 110.031 301.224C103.555 297.375 100.222 292.259 101.199 284.558C101.792 279.878 100.538 274.982 102.555 270.396C105.614 270.169 107.381 272.198 109.439 273.44C122.65 281.412 135.888 289.342 148.965 297.528C155.593 301.677 162.052 301.65 168.6 297.842C172.893 295.345 177.589 293.473 181.424 290.172C180.623 287.613 178.335 287.145 176.59 286.172C154.52 273.872 132.456 261.56 110.282 249.448C105.103 246.619 102.796 242.424 102.506 236.868C102.325 233.404 102.313 229.914 102.514 226.453C102.856 220.563 101.883 215.347 98.5567 210.085C93.3418 201.835 94.6767 193.204 100.937 186.034C106.886 179.221 115.257 176.523 122.69 179.022C131.286 181.912 138.726 191.193 138.78 199.794C138.82 206.285 135.652 211.619 131.286 216.232C125.184 222.679 126.303 230.87 134.042 235.407C150.85 245.26 167.686 255.063 184.87 265.109ZM108.347 194.787C105.706 202.361 108.652 209.189 114.984 210.169C120.043 210.953 124.691 208.239 126.22 203.314C127.765 198.337 126.349 194.212 121.888 191.373C117.312 188.462 113.08 189.377 108.347 194.787Z" fill="#177BFE"/>
<path d="M10.9018 220.948C10.9691 212.856 11.0175 205.331 11.0986 197.807C11.18 190.245 13.9159 184.33 21.27 181.154C25.4445 179.351 28.9363 176.032 34.6105 175.071C35.1578 185.604 34.5676 195.699 34.1999 205.79C33.919 213.497 33.5363 221.201 33.3695 228.91C33.224 235.637 36.1809 240.799 41.8838 244.353C46.245 247.071 50.6418 249.732 55.7138 252.843C56.246 244.939 56.9241 237.922 57.1518 230.891C57.7447 212.581 58.3757 194.267 58.5211 175.951C58.6016 165.81 61.3097 157.852 71.5785 153.908C76.7625 151.917 79.9714 148.496 81.8786 142.678C85.3722 132.02 98.5787 127.293 109.321 131.763C120.537 136.43 125.819 147.819 121.561 158.152C116.515 170.398 105.369 175.661 94.0177 171.157C88.9017 169.128 83.9796 172.113 82.4824 178.47C81.4658 182.787 81.1154 187.219 81.1813 191.684C81.6567 223.909 79.6024 256.073 78.7801 288.268C78.7468 289.57 78.4034 290.864 78.2015 292.182C74.8838 292.933 72.8998 290.689 70.7361 289.351C53.3493 278.599 36.1121 267.603 18.6675 256.947C12.5579 253.214 9.74863 248.181 10.0791 241.163C10.3874 234.616 10.6273 228.065 10.9018 220.948ZM93.0572 144.922C90.4637 149.831 90.4763 154.567 94.6145 158.576C97.5464 161.416 101.135 162.668 105.102 160.534C108.852 158.518 111.65 155.558 111.53 151.09C111.414 146.752 109.061 143.36 105.043 141.683C100.804 139.914 96.7851 140.546 93.0572 144.922Z" fill="#177BFE"/>
<path d="M216.399 231.657C211.34 234.537 206.633 237.179 201.982 239.916C197.014 242.84 192.135 242.787 187.23 239.791C184.598 238.184 181.903 236.68 179.263 235.085C175.375 232.737 171.569 231.741 166.714 232.586C156.217 234.412 145.895 226.827 143.249 216.318C140.733 206.329 146.653 194.805 156.429 190.659C165.351 186.876 176.023 190.853 181.715 200.246C182.999 202.366 183.936 204.739 184.751 207.093C187.45 214.891 194.274 217.827 201.588 213.805C215.606 206.098 229.435 198.047 243.436 190.309C260.138 181.078 276.933 172.017 293.703 162.91C295.356 162.012 296.975 160.793 299.816 161.643C299.816 168.682 300.29 175.963 299.716 183.16C298.594 197.215 298.907 211.286 298.578 225.347C298.38 233.814 295.055 240.076 287.699 244.386C275.227 251.693 262.778 259.048 250.49 266.658C244.561 270.329 238.989 270.625 233.274 266.643C229.089 263.728 223.93 262.126 220.236 257.057C229.815 251.491 239.074 246.079 248.363 240.722C254.709 237.062 261.032 233.356 267.489 229.902C271.71 227.644 274.365 224.353 275.317 219.748C276.728 212.925 276.156 206.081 275.748 197.726C255.397 209.368 236.086 220.414 216.399 231.657ZM164.449 201.498C160.72 201.162 157.641 202.165 155.671 205.623C152.329 211.488 154.229 217.841 160.207 220.662C165.04 222.943 170.864 220.424 172.818 215.207C175.126 209.046 172.307 203.9 164.449 201.498Z" fill="#177BFE"/>
<path d="M244.234 47.1293C256.663 54.2041 268.717 61.0827 280.793 67.9207C286.871 71.3621 289.868 76.2773 289.671 83.5029C289.256 98.7219 289.491 113.955 288.491 129.165C288.087 135.316 285.788 139.879 279.763 142.149C275.005 143.942 271.123 147.798 265.899 148.576C264.059 145.674 264.84 142.928 264.951 140.324C265.492 127.63 265.785 114.908 266.894 102.26C267.919 90.5558 263.781 82.4158 252.863 77.851C249.919 76.6197 247.573 74.0055 244.165 73.8877C242.679 75.4618 243.124 77.2811 243.1 78.9477C242.747 103.426 242.278 127.904 242.206 152.383C242.184 159.694 239.908 165.01 233.209 168.374C227.322 171.33 222.954 175.047 220.913 182.305C218.012 192.624 209.558 197.447 199.346 197.12C190.608 196.84 182.842 190.701 179.761 181.638C175.203 168.231 189.229 151.669 202.997 154.2C213.754 156.177 218.338 152.152 218.726 140.871C219.855 108.102 219.145 75.3228 219.473 42.5498C219.499 39.895 218.996 37.1622 220.647 33.3652C228.491 37.9425 236.179 42.4295 244.234 47.1293ZM198.893 185.772C206.089 185.665 210.548 182.095 210.868 176.185C211.143 171.109 206.992 165.899 201.939 164.977C196.934 164.063 191.979 167.971 190.739 174.237C189.563 180.179 192.821 183.583 198.893 185.772Z" fill="#177BFE"/>
<path d="M85.7086 94.9712C90.933 92.3784 95.8677 90.1553 100.595 87.5547C106.512 84.2991 111.978 84.715 117.355 88.6634C121.815 91.9393 126.233 93.5387 132.314 92.2527C144.492 89.6775 156.54 99.6912 157.388 111.974C158.145 122.925 147.099 134.762 135.852 135.051C128.42 135.243 118.894 127.992 115.748 119.75C112.679 111.711 105.339 109.551 97.8436 113.697C66.6186 130.972 34.4424 146.405 2.57742 162.439C2.2524 162.603 1.8253 162.564 1.44909 162.614C0.412659 162.209 -0.0322866 161.357 0.00181572 160.346C0.717288 139.151 1.38309 117.953 2.23518 96.7633C2.52088 89.6582 6.0139 84.5554 12.4665 81.154C25.6007 74.2304 38.7036 67.222 51.5369 59.7626C58.7719 55.5572 65.1817 55.418 71.822 60.5998C75.2722 63.2922 79.3313 65.1954 82.3922 68.3492C81.5279 70.9881 79.2334 71.3701 77.4365 72.3017C62.8829 79.8479 48.3786 87.4957 33.6953 94.7821C27.156 98.0272 24.3637 103.029 24.4109 110.04C24.4443 115.003 24.4173 119.967 24.4173 125.663C44.8054 115.458 65.066 105.316 85.7086 94.9712ZM133.064 103.227C131.297 103.641 129.938 104.673 128.821 106.056C125.626 110.012 125.455 115.64 128.59 119.388C131.406 122.755 134.876 124.525 139.304 122.653C143.699 120.795 146.138 115.715 145.215 110.623C144.319 105.681 140.684 103.237 133.064 103.227Z" fill="#177BFE"/>
</svg>
